<?xml version="1.0" standalone="no"?><!DOCTYPE svg PUBLIC "-//W3C//DTD SVG 1.1//EN" "http://www.w3.org/Graphics/SVG/1.1/DTD/svg11.dtd"><svg t="1776518746600" class="icon" viewBox="0 0 1024 1024" version="1.1" xmlns="http://www.w3.org/2000/svg" p-id="2342" width="500" height="500" xmlns:xlink="http://www.w3.org/1999/xlink"><path d="M470.94019638 24.50034429c-40.22641848 27.52333896-69.5132258 66.68989513-80.45283697 107.44560859-5.11482168 18.87776351-6.35281211 49.57687234-2.46961911 69.33637004 8.29313624 44.45950598 36.52135362 84.68592446 76.21974947 108.85663775 8.11373579 4.94178294 14.64085898 9.17359809 14.64085896 9.52730964 0 0.35243921-9.52730964 5.29294979-21.17179918 11.11392225-25.05244749 12.52749609-36.69439236 19.7594977-55.57597291 34.58102947-51.16094026 40.22514615-86.80183203 100.03675122-97.03274773 163.19716492-3.70760956 23.46710724-3.88319298 63.86783681 0 87.50925513 13.58354135 85.74451442 62.27867952 166.19735138 135.84813704 224.77223838 14.64340366 11.46381676 54.51738294 38.81284463 56.8101463 38.81284462 0.70742311 0-3.17449753-4.58552669-8.46871969-10.05660461-34.22604557-35.63961942-77.62823395-90.8618808-103.03439297-131.08702691-51.33906836-81.68701035-66.16060016-164.25448255-42.51918184-237.29718979 23.28770677-72.15842836 73.04016255-121.7378454 159.6676835-158.78594931l14.1141087-6.0003729 19.05589161 8.82370356c53.98681562 25.22803093 76.39406055 39.16655617 101.44396335 62.98610263 42.17055966 40.04829036 64.75338804 86.80183203 69.34273175 144.1412733 2.99636942 37.93365513-11.47272316 86.45066517-35.28845259 118.20836398-14.99838757 19.93635347-37.4030878 40.57758534-58.39930354 53.80995982l-5.29294982 3.52948145-12.34809561-9.17487045c-48.51955473-36.16636973-72.33910117-83.45302341-78.33565705-155.78830754-0.88173419-11.64321723-1.76474072-35.10777976-1.93905181-52.04649146-0.17812811-35.10777976-0.53183966-35.28463554-10.4115885-1.05604529-13.75912479 47.63400351-14.2922368 97.74017084-1.0598623 136.20184862 15.173971 44.46077832 48.51955473 84.33094057 93.6839391 111.68124077l9.528582 5.8197001 11.46763377-6.34899509c17.64486246-9.88356589 44.63508939-30.87723696 58.574887-45.34632954 27.70019473-29.10867921 44.28519488-59.27849308 54.87236684-100.03293416 4.58552669-17.28860622 4.93796591-21.52296606 4.93796591-50.63546232 0-24.87559172-0.70742311-34.75534058-3.35262564-45.87180749-19.2327474-82.7456003-69.86439268-142.20349383-156.84689753-184.54581989-11.46636144-5.46726089-20.99367108-10.40904383-21.17179918-10.93833881-0.17431107-0.52675029 6.88083473-5.645389 15.52641018-11.46636144 47.81213163-31.58211537 73.74758565-75.8660379 76.21974946-130.20529274 1.40975682-31.23094851-3.00273113-51.51719649-17.6435901-80.98213194-9.35172621-18.87776351-15.34955442-27.34521084-30.87596463-43.57777179C585.7959347 39.49618716 569.56210141 26.61625188 554.0382359 17.79509299l-8.64303078-5.11482169 14.11410869 16.93489467c50.28047842 59.63474932 68.4533635 116.61920669 54.51738296 171.13658963-10.93961114 43.40091602-36.8763375 73.21829067-83.4555681 95.62553562l-14.28841978 6.87956238-16.5837278-8.46871969c-41.81303108-21.52296606-65.4544494-47.45714773-78.51124049-86.44939282-4.23181515-12.8799353-4.76365482-16.58372782-4.76365483-41.45931952-0.17558343-23.29025146 0.3549839-29.46493546 3.88064831-42.34232607 8.99928701-32.64197767 32.64070533-72.16097306 60.8689227-101.80021958 4.05877641-4.23690452 6.87829005-7.76384127 6.35153977-8.29313625-0.3549839-0.35625624-7.76384127 4.23308749-16.58372783 10.05660462zM937.5938789 30.32131671c-13.93598057 6.0003729-23.64014598 20.46564844-23.28643443 35.10905211 0.17558343 4.76365482 0.52675029 10.93961114 0.70487839 13.58863075 0.52929497 4.05495938-6.34899507 11.46381676-47.46096476 53.10253673-26.464749 26.64160478-48.16457084 48.6938658-48.16457083 49.22316081 0 0.53056731 4.05877641 5.29294979 8.99801467 10.76148302l8.82370358 9.70543778 48.86817688-49.22443315 48.87199394-49.40128892 10.23218807 2.2940357c17.99602932 3.8806483 36.34704253-3.8806483 43.40346068-18.52277961 10.93706646-22.58282837 3.8806483-44.9900733-17.64359011-55.92968446-8.29313624-4.23435984-24.34884143-4.58552669-33.34685608-0.70615076z m26.46474899 17.46927905c7.41140206 3.87810361 10.5858996 9.34918153 10.58589961 18.69963537 0 9.17359809-4.05623171 15.87757706-12.34936797 20.1144816-6.87956239 3.52693674-12.17632922 3.34880861-18.70090775-0.70742311-12.52749609-7.5869855-14.11283634-24.17071331-3.3513533-34.93219634 6.52712319-6.52712319 14.99457052-7.76384127 23.81572941-3.17576988zM729.40791303 156.64341648c-2.46834678 1.23799043-5.82097243 5.29676684-7.58444082 8.99928701-2.64774724 5.47107792-3.00273113 7.58825784-1.23671808 12.52749608 2.47089148 7.5869855 5.82351714 10.5858996 16.93743935 14.82025944 13.05679106 4.94178294 36.34577019 19.23020271 47.45969245 29.1112239 11.64321723 10.23091571 19.05461928 22.40597259 29.99423041 48.34142662 9.52730964 22.93399524 14.81771476 28.75751235 25.57919778 28.75751234 5.29676684 0 7.5895302-1.0598623 11.29459504-5.46853321 6.34899507-7.5895302 5.99782822-14.11410868-1.4123015-22.23038918-3.17704221-3.7063372-8.11628048-12.34936796-10.76402771-19.05461927-15.70072129-39.6971235-30.69783651-56.2808513-67.04233436-74.45500875-8.64557545-4.40867093-16.23256095-8.81988654-16.5837278-9.70162073-0.35625624-1.0598623-2.64901959-4.23435984-5.2929498-7.05641817-5.29167746-5.82351714-14.8189871-7.9394247-21.34992731-4.58679906zM710.7070053 260.91579988c-24.17071331 24.34756908-49.40128892 50.28302311-56.10399555 57.33944127l-12.34936796 12.87993529 6.52712319 6.52457852 6.52712319 6.53094022 57.34071361-57.34071361 57.33944125-57.34071363-6.52712318-6.52457851c-3.52948143-3.7063372-7.06023521-6.70652366-7.58953017-6.70652364-0.70360606 0-20.99367108 20.11448158-45.16438438 44.63763409zM745.99164083 329.36916339l-50.98790151 50.98790151 6.70525131 6.52966788 6.8795624 6.34899508 49.93058389-50.104895 49.93185624-50.10489497-5.82351713-7.23581863-5.64538901-7.40885738-50.99044619 50.98790151zM750.58098457 757.38685706c-16.93616701 1.94032413-51.16475729 10.05660462-69.86820972 16.58372781-48.86944925 17.11683983-94.03637832 44.81576222-135.67382595 83.62733449l-10.58335492 9.88229354 12.34936798-7.76384128c43.40091602-26.81591587 93.15464413-52.04649147 120.8561112-60.86765036 37.75552701-12.17632922 59.63093227-16.23256095 97.03402008-17.46546199 64.92642677-2.11845227 126.49768319 13.75912479 173.60620876 44.99007331 14.11410868 9.34918153 39.87397929 34.05046215 39.87397928 38.10669386 0 4.76365482-23.11466803 26.464749-39.3446843 37.05064859-34.75788525 22.75713944-78.15880126 37.57867124-128.2649686 44.10579445-71.45354995 9.17487042-131.43819377 3.00018645-222.12321879-22.75968416-12.17632922-3.35008097-22.22911681-5.81970008-22.58410069-5.46853323-1.41230151 1.41230151 30.87596461 17.28987855 54.16239903 26.64287712 71.27923887 28.40507315 159.84708396 38.10923856 227.41871329 24.70000829 58.2224478-11.46890613 109.73964428-36.16891442 140.6156089-67.22046247 13.05424638-13.2323745 27.16835507-32.63943299 27.16835505-37.57994356 0-1.58915728-5.29294979-9.87974886-11.82007299-18.3471962-34.93346868-46.40237481-93.68266677-77.45519519-164.25193784-86.80564906-17.29115091-2.29276335-72.51341226-3.17449753-88.5678451-1.41230151zM185.47589108 760.56389928c-57.51502471 9.35045387-107.26875282 33.52116717-139.20076272 67.92406853-12.52749609 13.2323745-26.11230979 31.75769879-26.11230978 35.28463554 0 2.47089148 12.70307952 21.34992731 21.70363886 32.28826612 7.76129659 9.34918153 27.16835507 25.58174247 40.93002455 34.40290136 12.52495142 7.76384127 43.2227879 22.05480573 59.27849308 27.34775552 39.87397929 13.2323745 75.51105401 17.99602932 126.67453896 16.58500017 52.57960349-1.41230151 88.04236714-7.94069704 134.615236-25.0524475 27.34902787-10.05787696 72.51595695-32.63943299 65.28141066-32.639433-1.05858996 0-15.70199362 3.87937596-32.46384955 8.64303078-38.81284463 10.93833879-67.74721274 17.46546198-91.38863108 20.46692079-89.62389036 11.29077801-180.31400474-3.0014588-238.88507471-37.58121592-25.2305756-15.17015396-50.10616732-38.9897004-47.81340399-46.04611857 1.5866126-4.94178294 26.63906008-28.22821738 39.69457882-36.87379284 53.46006533-35.28718023 130.38214851-52.39893066 209.60081207-46.4023748 14.99584287 1.2341734 29.63924653 2.47216381 32.63943298 3.00145879l5.64538902 1.05604527-5.2929498-3.70379252c-6.70525131-4.76365482-27.8770505-11.82007298-48.87199395-16.40814438-21.87540527-4.76365482-82.9199114-6.0003729-106.03203473-2.29276334z" p-id="2343"></path></svg>